<?xml version="1.0" standalone="no"?>
<!DOCTYPE svg PUBLIC "-//W3C//DTD SVG 20010904//EN"
 "http://www.w3.org/TR/2001/REC-SVG-20010904/DTD/svg10.dtd">
<svg version="1.0" xmlns="http://www.w3.org/2000/svg"
 width="758.000000pt" height="127.000000pt" viewBox="0 0 758.000000 127.000000"
 preserveAspectRatio="xMidYMid meet">

<g transform="translate(0.000000,127.000000) scale(0.100000,-0.100000)"
fill="#000000" stroke="none">
<path d="M0 635 l0 -635 1063 1 c584 1 1039 5 1012 9 -334 49 -579 303 -579
600 0 112 29 205 94 304 102 151 238 238 443 281 105 23 216 18 399 -15 296
-55 388 -52 532 18 18 9 -7 -73 -34 -114 -56 -81 -179 -134 -311 -134 -35 0
-120 10 -189 21 -149 26 -332 30 -405 10 -128 -35 -232 -120 -283 -229 -23
-49 -27 -70 -27 -147 0 -79 3 -97 28 -145 58 -112 174 -200 312 -235 39 -10
107 -15 197 -15 l138 0 0 130 0 129 -37 7 c-20 4 -90 4 -155 1 -66 -3 -118 -2
-116 3 4 11 105 101 161 143 l49 37 281 0 280 0 -24 -26 c-55 -59 -188 -164
-208 -164 -20 0 -21 -4 -21 -113 l0 -112 118 3 c64 1 154 3 198 5 l82 2 -27
-31 c-102 -119 -268 -184 -556 -218 -16 -1 1139 -4 2568 -5 l2597 -1 0 635 0
635 -3790 0 -3790 0 0 -635z m605 521 c63 -16 164 -67 189 -94 18 -20 17 -22
-15 -79 -19 -32 -37 -65 -41 -75 -6 -14 -16 -12 -86 24 -64 33 -93 41 -151 46
-117 8 -195 -33 -195 -103 0 -64 31 -81 234 -125 161 -35 248 -88 295 -181 35
-68 45 -121 35 -190 -30 -213 -223 -333 -482 -300 -101 13 -169 37 -243 86
-91 61 -91 59 -42 152 l42 81 36 -28 c87 -70 199 -106 305 -97 77 6 132 32
161 76 34 50 30 96 -10 136 -36 36 -68 47 -202 71 -155 26 -254 85 -303 178
-36 69 -38 178 -4 247 41 84 113 142 217 175 53 17 198 17 260 0z m6654 -1
c63 -16 144 -55 185 -88 l28 -23 -37 -74 c-21 -41 -38 -76 -39 -77 -2 -2 -27
10 -57 27 -103 55 -241 76 -313 46 -39 -16 -76 -60 -76 -91 0 -12 9 -34 20
-48 23 -28 67 -44 217 -77 109 -23 178 -56 240 -113 63 -58 85 -107 91 -197 5
-98 -20 -169 -88 -243 -93 -102 -251 -144 -425 -114 -95 17 -203 64 -264 116
l-35 29 38 73 c21 41 42 78 46 83 5 4 26 -5 47 -22 132 -106 351 -123 437 -33
49 51 52 115 9 164 -19 21 -87 42 -198 61 -115 20 -187 50 -244 102 -68 61
-93 116 -93 204 0 138 82 247 219 290 71 23 216 26 292 5z m-3315 -37 c3 -18
7 -55 10 -82 4 -27 11 -55 18 -63 10 -12 3 -13 -43 -6 -58 9 -93 9 -371 5
l-178 -2 0 -141 0 -141 255 4 c140 2 254 1 253 -2 -2 -3 -37 -38 -80 -78 l-76
-73 -176 -2 -176 -2 0 -137 0 -138 289 0 c164 0 301 4 315 10 31 11 31 9 9
-33 -9 -18 -19 -57 -22 -87 l-6 -55 -405 -3 c-223 -1 -412 0 -420 4 -12 4 -12
8 5 20 19 14 20 28 23 486 2 457 2 471 -18 505 -11 19 -20 36 -20 39 0 2 182
4 405 4 l404 0 5 -32z m805 22 c114 -19 192 -74 238 -168 24 -49 28 -69 28
-142 0 -75 -4 -91 -30 -140 -32 -58 -103 -116 -158 -127 -17 -4 -26 -11 -23
-19 4 -11 126 -211 218 -356 16 -25 36 -52 44 -58 7 -7 14 -19 14 -26 0 -11
-25 -14 -119 -14 l-119 0 -31 66 c-34 72 -149 270 -188 322 -23 31 -26 32 -99
32 l-74 0 0 -184 c0 -154 3 -187 16 -200 29 -29 5 -36 -126 -36 -128 0 -154 6
-125 30 22 19 23 966 0 996 -8 10 -15 22 -15 27 0 11 476 8 549 -3z m742 -24
c-21 -22 -21 -27 -21 -492 0 -382 3 -474 14 -496 8 -15 12 -29 8 -32 -3 -3
-65 -6 -139 -6 -135 0 -156 6 -115 36 16 11 17 48 20 466 3 442 -1 528 -28
528 -6 0 -10 6 -10 13 0 9 34 11 146 9 l146 -3 -21 -23z m705 23 c140 -25 289
-136 357 -267 115 -219 82 -463 -87 -636 -105 -108 -219 -156 -366 -156 -137
0 -260 52 -361 150 -97 96 -146 206 -156 350 -11 163 40 295 161 416 128 127
278 175 452 143z m-4899 -17 c-15 -17 -17 -66 -17 -504 0 -418 2 -487 15 -498
29 -24 3 -30 -125 -30 -128 0 -154 6 -125 30 13 11 15 80 15 493 0 480 0 481
-22 504 l-21 23 148 0 c143 0 148 -1 132 -18z"/>
<path d="M4450 830 l0 -140 123 0 c139 0 176 12 214 69 29 43 29 92 1 142 -33
58 -65 69 -212 69 l-126 0 0 -140z"/>
<path d="M5805 871 c-86 -40 -129 -123 -130 -251 0 -72 4 -94 26 -141 34 -71
95 -133 162 -165 40 -18 69 -24 127 -24 41 0 85 3 97 6 49 13 77 188 49 307
-50 213 -195 331 -331 268z"/>
</g>
</svg>
